<?xml version="1.0" standalone="no"?>
<!DOCTYPE svg PUBLIC "-//W3C//DTD SVG 20010904//EN"
 "http://www.w3.org/TR/2001/REC-SVG-20010904/DTD/svg10.dtd">
<svg version="1.0" xmlns="http://www.w3.org/2000/svg"
 width="512.000000pt" height="512.000000pt" viewBox="0 0 512.000000 512.000000"
 preserveAspectRatio="xMidYMid meet">

<g transform="translate(0.000000,512.000000) scale(0.100000,-0.100000)"
fill="#000000" stroke="none">
<path d="M1457 5030 c-57 -18 -93 -57 -147 -159 -150 -287 -329 -503 -585
-708 -146 -117 -165 -152 -165 -300 l0 -103 182 0 181 0 -139 -142 c-81 -83
-150 -164 -166 -194 -35 -64 -58 -161 -58 -241 l0 -63 182 0 181 0 -139 -142
c-81 -83 -150 -164 -166 -194 -35 -64 -58 -161 -58 -241 l0 -63 440 0 440 0 0
-159 0 -159 -55 -7 c-75 -9 -183 -65 -234 -121 -44 -47 -101 -154 -101 -189 0
-28 -9 -37 -61 -67 -62 -36 -115 -97 -153 -177 -28 -60 -31 -75 -31 -162 0
-89 2 -100 36 -167 26 -53 32 -72 21 -72 -105 0 -222 -126 -222 -239 0 -21 -9
-41 -25 -56 -23 -24 -28 -25 -176 -25 -186 0 -218 -8 -284 -75 -102 -101 -102
-229 0 -330 70 -70 91 -75 353 -75 l221 0 -6 -50 c-9 -78 12 -136 71 -195 32
-32 66 -55 92 -63 60 -17 3208 -17 3268 0 55 16 138 99 154 154 28 94 8 169
-63 239 -66 67 -98 75 -284 75 -148 0 -153 1 -176 25 -33 32 -33 78 0 110 l24
25 512 0 c372 0 523 3 553 12 55 16 138 99 154 154 26 89 9 163 -55 234 -66
74 -94 80 -359 80 l-223 0 -24 53 c-43 95 -142 170 -242 184 l-45 6 0 277 0
276 72 -35 c67 -34 78 -36 168 -36 91 0 100 2 172 37 91 45 148 103 191 196
27 57 32 80 33 152 l2 85 47 49 c26 27 61 79 79 115 28 60 31 75 31 161 0 86
-3 101 -31 160 -18 36 -45 81 -61 100 l-30 34 21 46 c16 35 21 65 21 140 0
101 -16 151 -71 231 -23 34 -24 39 -13 89 25 119 -15 261 -101 354 -43 47
-164 116 -204 116 -28 0 -40 10 -59 45 -32 64 -97 124 -175 162 -72 36 -81 38
-171 38 -87 0 -102 -3 -162 -31 -80 -38 -141 -91 -177 -153 -30 -53 -39 -61
-68 -61 -40 0 -161 -69 -204 -116 -86 -93 -126 -235 -101 -353 11 -52 10 -56
-18 -100 -16 -25 -35 -60 -43 -78 l-13 -32 -57 39 c-199 134 -442 114 -625
-53 -56 -52 -57 -51 -67 14 -14 85 -66 159 -210 307 l-139 142 181 0 182 0 0
103 c0 148 -19 183 -165 300 -256 205 -424 407 -582 702 -71 131 -108 164
-194 170 -29 3 -67 0 -82 -5z m149 -267 c156 -284 356 -526 579 -702 108 -84
135 -110 135 -127 0 -12 -45 -14 -280 -14 l-280 0 0 -80 0 -80 63 0 63 0 191
-192 c135 -136 198 -206 212 -238 l20 -45 -274 -3 -275 -2 0 -80 0 -80 62 0
63 0 182 -182 183 -183 0 -45 c0 -25 -4 -51 -8 -58 -7 -10 -165 -12 -760 -10
l-751 3 20 45 c14 32 77 102 212 238 l191 192 63 0 63 0 0 80 0 80 -275 2
-274 3 20 45 c14 32 77 102 212 238 l191 192 63 0 63 0 0 80 0 80 -280 0
c-339 0 -333 -5 -166 124 234 182 453 444 601 721 60 112 64 117 89 113 14 -2
38 -35 82 -115z m2468 -695 c76 -23 139 -102 172 -215 2 -8 22 -13 55 -13 82
0 128 -19 185 -75 82 -82 95 -175 39 -286 l-26 -51 47 -41 c118 -104 123 -237
14 -367 l-39 -47 40 -23 c163 -91 207 -257 101 -380 -19 -23 -57 -52 -86 -67
-28 -14 -53 -27 -54 -29 -2 -1 5 -28 17 -59 39 -105 23 -184 -54 -260 -101
-102 -229 -102 -330 0 -64 64 -75 100 -75 255 l0 122 151 190 c83 104 150 190
148 192 -2 1 -30 23 -62 49 l-59 47 -89 -111 -89 -111 0 406 0 406 -80 0 -80
0 0 -246 0 -246 -89 111 -89 111 -59 -47 c-32 -26 -60 -48 -62 -49 -2 -2 65
-88 148 -192 l151 -190 0 -282 c0 -193 -4 -296 -12 -324 -16 -55 -99 -138
-154 -154 -23 -7 -59 -12 -80 -12 -88 0 -213 93 -200 149 3 14 13 55 21 91 53
230 17 520 -90 735 -35 71 -45 101 -45 140 0 68 36 141 94 192 l47 41 -26 51
c-55 110 -43 203 39 287 56 57 97 74 184 74 33 0 54 5 56 13 22 76 44 117 85
157 67 66 144 85 235 58z m-1047 -823 c70 -34 164 -127 212 -208 47 -80 98
-235 112 -342 47 -362 -110 -736 -348 -828 l-43 -17 0 301 0 301 151 190 c83
104 150 190 148 192 -2 1 -30 23 -62 49 l-59 47 -89 -111 -89 -111 0 126 0
126 -80 0 -80 0 0 -307 0 -308 -85 128 c-47 70 -88 127 -91 127 -10 0 -124
-81 -124 -88 0 -4 68 -108 150 -232 l150 -225 0 -102 0 -103 -42 17 c-192 74
-337 333 -355 633 -20 358 144 689 380 766 67 22 174 13 244 -21z m-647 -129
c0 -2 -16 -37 -35 -77 -19 -41 -35 -79 -35 -86 0 -24 -16 -13 -105 77 l-90 90
133 0 c72 0 132 -2 132 -4z m-136 -658 c3 -13 9 -55 15 -95 48 -322 258 -604
494 -663 l47 -12 0 -244 0 -244 -158 0 -158 0 35 72 c34 67 36 78 36 167 0 87
-3 102 -32 163 -44 93 -100 151 -191 195 -67 34 -83 38 -163 39 l-87 2 -37 41
c-46 51 -157 107 -229 116 -46 6 -61 14 -105 55 -28 26 -64 53 -81 60 l-30 12
0 179 0 179 320 0 320 0 4 -22z m1283 -506 c50 -23 71 -27 154 -27 89 0 100 2
167 36 l72 35 0 -218 c0 -120 -2 -218 -5 -218 -20 0 -69 34 -112 78 -32 32
-78 65 -120 85 -62 29 -77 32 -163 32 -86 0 -101 -3 -162 -32 -119 -56 -202
-159 -229 -281 -6 -29 -14 -52 -19 -52 -19 0 -94 -87 -117 -136 -13 -30 -26
-54 -29 -54 -2 0 -4 110 -4 244 l0 244 48 12 c118 29 260 140 342 267 l45 70
37 -29 c20 -15 63 -41 95 -56z m-1992 24 c50 -24 83 -53 124 -114 22 -31 25
-32 72 -26 101 13 196 -41 246 -140 14 -28 27 -52 28 -54 1 -2 30 6 64 18 110
37 180 22 256 -55 54 -53 76 -103 74 -171 -1 -57 -18 -95 -74 -168 l-50 -65
-591 0 -591 -1 -54 64 c-59 71 -77 111 -78 170 -3 121 77 209 227 252 7 2 12
22 12 55 0 82 19 128 75 184 77 78 167 95 260 51z m2075 -397 c53 -24 84 -51
116 -100 17 -28 32 -38 61 -44 72 -13 122 -70 138 -158 4 -20 10 -37 14 -37 3
0 33 10 66 22 69 24 114 20 166 -15 70 -48 77 -47 -490 -47 -292 0 -531 4
-531 8 0 15 34 41 83 62 l47 21 0 51 c0 81 19 128 75 183 75 76 166 95 255 54z
m1245 -564 c33 -32 33 -78 0 -110 l-24 -25 -512 0 c-372 0 -523 -3 -553 -12
-26 -8 -60 -31 -92 -63 -59 -59 -80 -117 -71 -195 l6 -50 -84 0 -85 0 0 -80 0
-80 335 0 336 0 24 -25 c33 -32 33 -78 0 -110 l-24 -25 -1591 0 -1591 0 -24
25 c-33 32 -33 78 0 110 l24 25 256 0 255 0 0 80 0 80 -575 0 -576 0 -24 25
c-33 32 -33 78 0 110 23 24 28 25 176 25 186 0 218 8 284 75 52 51 75 102 75
164 0 21 9 41 25 56 l24 25 1991 0 1991 0 24 -25z"/>
<path d="M1440 801 l0 -81 149 0 c107 0 151 -4 158 -12 6 -7 13 -33 17 -58 9
-58 39 -105 89 -138 39 -26 45 -27 214 -30 l173 -4 0 81 0 81 -149 0 c-107 0
-151 4 -158 13 -6 6 -13 32 -17 57 -9 58 -39 105 -89 138 -39 26 -45 27 -214
30 l-173 4 0 -81z"/>
</g>
</svg>
