<?xml version="1.0" standalone="no"?>
<!DOCTYPE svg PUBLIC "-//W3C//DTD SVG 20010904//EN"
 "http://www.w3.org/TR/2001/REC-SVG-20010904/DTD/svg10.dtd">
<svg version="1.0" xmlns="http://www.w3.org/2000/svg"
 width="512.000000pt" height="512.000000pt" viewBox="0 0 512.000000 512.000000"
 preserveAspectRatio="xMidYMid meet">

<g transform="translate(0.000000,512.000000) scale(0.100000,-0.100000)"
fill="#000000" stroke="none">
<path d="M1502 4889 c-84 -42 -107 -115 -100 -319 3 -93 9 -135 23 -163 25
-53 83 -89 151 -95 l54 -4 0 -73 0 -73 -162 -3 -163 -4 -75 -36 c-97 -47 -162
-112 -209 -209 l-36 -75 -3 -370 -3 -370 -77 37 c-98 47 -203 68 -337 68 -174
0 -195 -22 -195 -202 0 -199 44 -330 157 -470 l62 -77 -72 -48 c-95 -64 -239
-209 -305 -308 -95 -144 -153 -281 -189 -449 -25 -113 -24 -351 0 -466 64
-298 220 -546 455 -722 120 -90 208 -137 345 -183 197 -66 162 -64 1588 -65
1462 0 1373 -5 1544 80 86 43 101 48 115 35 33 -30 169 -86 244 -100 158 -30
286 -13 434 61 164 80 293 235 346 414 26 85 31 231 12 320 -41 198 -178 376
-358 464 -121 60 -213 80 -338 72 -106 -6 -177 -24 -262 -67 -32 -16 -60 -29
-63 -29 -3 0 -5 47 -5 105 0 99 -2 107 -25 130 -31 32 -69 32 -100 0 -23 -22
-25 -32 -25 -111 0 -78 -2 -85 -17 -79 -186 78 -387 71 -571 -21 -165 -81
-302 -247 -346 -415 l-13 -54 -322 -3 c-176 -1 -321 -1 -321 0 0 2 9 32 21 68
27 85 49 236 49 332 0 70 -14 211 -26 249 -4 14 16 17 168 21 145 5 182 9 229
27 115 44 193 125 229 240 17 53 20 91 20 236 0 145 -3 183 -20 236 -36 115
-114 197 -228 239 -52 20 -73 21 -272 18 -212 -3 -216 -3 -267 -30 -123 -65
-200 -180 -215 -321 l-3 -29 -65 53 c-36 28 -82 62 -102 75 -40 26 -47 38 -25
47 24 9 108 129 143 202 45 94 64 187 64 323 0 179 -22 202 -192 202 -57 0
-132 -5 -168 -11 -169 -27 -340 -138 -437 -285 -20 -30 -37 -54 -38 -54 -1 0
-19 25 -39 55 l-36 55 0 200 0 200 1400 0 1400 0 0 -695 0 -696 25 -24 c31
-32 69 -32 100 0 l25 24 0 908 c0 726 -3 918 -14 958 -42 157 -165 279 -317
314 -24 6 -106 11 -181 11 l-138 0 0 74 0 74 54 4 c68 6 126 42 151 95 14 28
20 70 23 163 7 204 -18 283 -102 321 -39 18 -87 19 -1026 19 -982 0 -985 0
-1028 -21z m1993 -279 l0 -145 -732 -5 c-677 -5 -734 -6 -753 -22 -28 -24 -27
-81 2 -108 21 -20 32 -20 640 -20 l618 0 0 -75 0 -75 -740 0 -740 0 0 103 c0
120 -11 169 -43 185 -12 7 -58 13 -102 14 l-80 3 -3 134 c-1 74 0 141 2 148 4
11 184 13 968 11 l963 -3 0 -145z m257 -620 c68 -25 132 -90 158 -158 16 -43
20 -77 20 -187 l0 -135 -1400 0 -1400 0 0 135 c0 110 4 144 20 187 25 67 89
132 156 158 47 18 88 19 1221 20 1146 0 1173 0 1225 -20z m-2970 -968 c157
-56 280 -187 329 -350 7 -23 9 -45 6 -48 -3 -4 -46 -12 -95 -20 -49 -7 -131
-26 -182 -43 -64 -20 -99 -27 -110 -21 -37 20 -131 134 -158 193 -37 78 -52
147 -52 244 l0 76 103 -6 c63 -3 124 -13 159 -25z m1108 -47 c0 -95 -15 -164
-52 -242 -27 -59 -121 -173 -158 -193 -11 -6 -46 1 -110 21 -51 17 -133 36
-182 43 -49 8 -92 16 -95 20 -4 3 1 32 11 64 47 153 168 277 321 330 74 26 91
29 188 31 l77 1 0 -75z m891 -480 c27 -19 54 -50 71 -84 28 -52 28 -56 28
-226 0 -170 0 -174 -28 -226 -55 -105 -122 -129 -369 -129 l-142 0 -45 93
c-24 50 -60 116 -80 146 l-36 53 0 114 c0 157 32 228 122 273 40 20 55 21 240
19 l196 -3 43 -30z m-1319 -58 c378 -98 663 -384 765 -765 23 -85 26 -116 26
-257 0 -142 -3 -171 -26 -260 -101 -376 -387 -661 -765 -762 -85 -23 -116 -26
-257 -26 -142 0 -171 3 -260 26 -377 101 -661 386 -762 765 -23 85 -26 116
-26 257 0 142 3 171 26 260 110 409 427 700 849 781 111 21 309 12 430 -19z
m2303 -1042 c56 -15 125 -43 153 -63 11 -7 7 -18 -20 -53 -73 -97 -128 -264
-128 -394 0 -131 63 -318 137 -405 25 -30 25 -31 7 -45 -60 -46 -203 -80 -304
-72 -220 17 -395 155 -466 367 -13 39 -19 84 -19 155 0 152 47 267 150 370
128 128 322 183 490 140z m847 -14 c161 -56 279 -176 334 -341 13 -39 19 -84
19 -155 0 -152 -47 -267 -150 -370 -103 -103 -218 -150 -370 -150 -152 0 -267
47 -370 150 -103 103 -150 218 -150 370 0 71 6 116 19 155 64 191 218 325 416
364 51 10 196 -3 252 -23z m-1637 -573 c17 -141 83 -281 178 -383 l62 -65
-710 1 c-554 0 -706 3 -691 12 11 7 64 45 118 86 114 84 228 208 297 323 l46
77 347 1 346 0 7 -52z"/>
<path d="M895 2264 c-38 -13 -104 -43 -145 -67 -99 -56 -261 -215 -319 -314
-174 -295 -174 -641 0 -936 58 -99 220 -258 319 -314 90 -51 206 -93 256 -93
47 0 90 26 109 66 23 48 23 1570 0 1618 -33 69 -103 82 -220 40z m85 -360 c0
-177 -3 -224 -12 -218 -7 4 -32 20 -55 36 -49 33 -95 36 -123 8 -21 -21 -26
-60 -11 -88 5 -10 52 -46 105 -82 l95 -65 0 -80 0 -80 -95 -65 c-53 -36 -100
-72 -105 -82 -15 -28 -10 -67 11 -88 28 -28 74 -25 123 8 23 16 48 32 55 36 9
6 12 -41 12 -218 0 -187 -2 -226 -14 -226 -8 0 -56 21 -107 47 -126 62 -254
188 -316 308 -70 135 -88 210 -88 360 0 150 18 225 88 360 62 120 190 246 316
308 51 26 99 47 107 47 12 0 14 -39 14 -226z"/>
<path d="M1338 2272 c-60 -36 -58 -8 -58 -857 0 -855 -2 -822 61 -859 43 -26
113 -17 216 27 227 96 421 301 500 529 88 252 64 521 -69 756 -59 105 -224
271 -328 329 -92 52 -207 93 -257 93 -21 0 -50 -8 -65 -18z m213 -189 c126
-62 254 -188 316 -308 70 -135 88 -210 88 -360 0 -150 -18 -225 -88 -360 -62
-120 -190 -246 -316 -308 -51 -26 -99 -47 -107 -47 -12 0 -14 39 -14 226 0
177 3 224 13 218 6 -4 31 -20 54 -36 49 -33 95 -36 123 -8 21 21 26 60 11 88
-5 10 -52 46 -105 82 l-95 65 0 80 0 80 95 65 c53 36 100 72 105 82 15 28 10
67 -11 88 -28 28 -74 25 -123 -8 -23 -16 -48 -32 -54 -36 -10 -6 -13 41 -13
218 0 187 2 226 14 226 8 0 56 -21 107 -47z"/>
</g>
</svg>
