<?xml version="1.0" standalone="no"?>
<!DOCTYPE svg PUBLIC "-//W3C//DTD SVG 20010904//EN"
 "http://www.w3.org/TR/2001/REC-SVG-20010904/DTD/svg10.dtd">
<svg version="1.0" xmlns="http://www.w3.org/2000/svg"
 width="512.000000pt" height="512.000000pt" viewBox="0 0 512.000000 512.000000"
 preserveAspectRatio="xMidYMid meet">

<g transform="translate(0.000000,512.000000) scale(0.100000,-0.100000)"
fill="#000000" stroke="none">
<path d="M2345 5110 c-403 -46 -774 -199 -1094 -450 -39 -30 -70 -57 -70 -60
0 -3 22 -29 48 -59 l49 -54 68 55 c233 188 528 327 819 386 1099 226 2158
-518 2320 -1629 20 -139 20 -409 0 -548 -61 -415 -247 -790 -545 -1093 l-86
-88 -607 0 -607 0 2 161 3 161 162 94 162 94 74 -53 c215 -155 446 -167 663
-36 185 113 359 353 449 621 42 127 69 269 52 280 -24 15 -196 67 -277 85
-115 24 -402 24 -507 0 -267 -61 -442 -199 -514 -403 -24 -70 -36 -234 -22
-311 l10 -52 -122 -71 c-67 -38 -125 -70 -129 -70 -3 0 -6 224 -6 498 l0 497
59 23 c168 65 295 193 353 353 33 93 33 299 0 414 -47 164 -157 360 -277 495
-64 71 -194 190 -209 190 -16 0 -111 -78 -173 -142 -228 -239 -372 -573 -348
-813 21 -219 132 -373 343 -477 l102 -50 0 -420 c0 -342 -2 -419 -13 -416 -7
2 -68 35 -135 73 -90 52 -120 74 -116 85 3 8 8 62 11 120 4 79 1 121 -11 170
-44 173 -150 302 -316 384 -140 68 -224 87 -416 93 -216 7 -385 -20 -546 -89
-39 -17 -47 -24 -43 -42 2 -11 11 -58 20 -104 65 -341 288 -668 540 -793 215
-106 426 -82 631 72 l54 41 170 -97 170 -98 -2 -231 -3 -231 -608 -3 -608 -2
-61 57 c-33 32 -94 99 -136 148 -234 278 -385 617 -438 985 -24 170 -15 490
20 652 70 329 224 641 439 889 l75 87 -52 51 -52 51 -40 -42 c-172 -180 -344
-461 -434 -706 -35 -98 -73 -241 -96 -367 -22 -119 -30 -463 -15 -593 50 -405
219 -796 479 -1105 45 -53 82 -99 82 -102 0 -2 -202 -6 -449 -7 l-449 -3 -43
-30 c-27 -19 -54 -50 -71 -84 l-28 -53 0 -602 c0 -404 4 -614 11 -641 14 -51
93 -130 146 -144 26 -8 662 -11 2051 -11 l2012 0 0 75 0 75 -2010 0 -2011 0
-24 25 -25 24 0 589 c0 578 0 589 20 610 l21 22 2369 0 2369 0 21 -22 c20 -21
20 -32 20 -610 l0 -589 -25 -24 c-23 -24 -30 -25 -150 -25 l-125 0 0 -75 0
-75 126 0 c71 0 145 5 168 12 54 16 128 90 144 144 9 31 12 198 12 642 l0 600
-28 53 c-17 34 -44 65 -71 84 l-43 30 -449 3 c-247 1 -449 5 -449 7 0 3 37 49
82 102 253 301 414 663 472 1064 20 137 21 429 1 567 -74 522 -333 989 -734
1324 -286 238 -624 394 -993 458 -140 24 -432 35 -563 20z m296 -837 c123
-129 207 -273 260 -443 34 -107 34 -279 0 -363 -29 -75 -112 -164 -189 -205
-33 -18 -63 -32 -66 -32 -3 0 -6 164 -6 365 l0 365 -75 0 -75 0 0 -365 c0
-285 -3 -365 -12 -365 -26 0 -123 64 -170 111 -90 90 -128 218 -108 366 20
152 84 307 187 451 48 67 160 192 173 192 4 0 41 -35 81 -77z m-936 -1298
c202 -56 338 -179 375 -337 11 -51 13 -188 2 -188 -4 0 -144 79 -311 175 -166
96 -307 175 -311 175 -10 0 -70 -102 -70 -118 0 -5 138 -90 308 -187 169 -98
308 -179 310 -180 7 -5 -101 -68 -150 -87 -80 -32 -203 -30 -285 4 -118 49
-234 151 -324 286 -75 113 -150 283 -173 398 l-7 31 93 21 c135 31 128 31 313
27 119 -2 188 -8 230 -20z m2130 -135 c82 -12 197 -39 208 -49 12 -12 -41
-180 -88 -276 -63 -130 -119 -210 -207 -297 -146 -145 -312 -199 -465 -150
-61 19 -163 77 -163 91 0 5 144 91 320 192 176 101 320 189 320 194 -1 16 -64
118 -73 117 -5 0 -150 -81 -322 -181 -173 -100 -320 -181 -326 -181 -8 0 -10
27 -7 99 4 83 10 108 36 165 84 180 298 283 592 285 58 0 137 -4 175 -9z"/>
<path d="M3234 4587 c-3 -8 -4 -43 -2 -78 l3 -64 75 0 75 0 0 75 0 75 -73 3
c-55 2 -74 -1 -78 -11z"/>
<path d="M3534 4437 c-3 -8 -4 -43 -2 -78 l3 -64 75 0 75 0 0 75 0 75 -73 3
c-55 2 -74 -1 -78 -11z"/>
<path d="M634 1120 c-101 -20 -203 -102 -247 -198 -17 -36 -22 -66 -22 -132 0
-76 3 -92 33 -152 56 -113 151 -177 278 -186 168 -11 308 92 350 257 20 82 12
151 -27 230 -49 98 -132 159 -244 180 -65 12 -63 12 -121 1z m154 -167 c71
-34 114 -132 93 -211 -14 -51 -64 -110 -108 -128 -113 -48 -247 30 -261 151
-9 85 53 185 126 201 15 3 32 7 37 9 17 7 78 -6 113 -22z"/>
<path d="M1190 791 l0 -341 75 0 74 0 3 96 3 96 89 -106 c87 -105 89 -106 110
-89 43 36 86 77 86 83 0 3 -34 46 -75 95 l-75 89 27 14 c78 40 119 115 111
207 -6 73 -45 130 -113 164 -44 23 -63 26 -182 29 l-133 4 0 -341z m254 168
c54 -42 26 -99 -52 -107 l-52 -5 0 67 0 66 39 0 c24 0 48 -8 65 -21z"/>
<path d="M2033 1120 c-73 -15 -131 -47 -182 -99 -133 -136 -125 -352 16 -481
74 -68 145 -93 243 -88 114 7 197 62 249 164 21 43 41 142 41 207 l0 37 -155
0 -155 0 0 -75 0 -75 70 0 c79 0 86 -9 45 -58 -34 -40 -75 -55 -136 -50 -131
13 -205 163 -137 279 56 95 171 121 269 60 28 -17 54 -31 58 -31 8 0 81 104
81 115 0 10 -105 72 -140 83 -54 17 -121 21 -167 12z"/>
<path d="M2693 1093 c-23 -55 -223 -583 -226 -595 -2 -10 104 -58 128 -58 5 0
21 31 35 68 l25 67 111 3 111 3 23 -63 c12 -35 26 -67 31 -72 6 -7 122 26 137
39 2 2 -120 333 -208 563 l-32 82 -59 0 c-60 0 -60 0 -76 -37z m100 -291 c26
-66 24 -72 -28 -72 -25 0 -45 3 -45 6 0 21 44 124 50 117 4 -4 14 -27 23 -51z"/>
<path d="M3210 790 l0 -340 75 0 75 0 0 187 0 186 113 -179 113 -179 72 -3 72
-3 0 336 0 335 -75 0 -75 0 -2 -184 -3 -183 -115 183 -115 184 -67 0 -68 0 0
-340z"/>
<path d="M3880 790 l0 -340 75 0 75 0 0 340 0 340 -75 0 -75 0 0 -340z"/>
<path d="M4453 1120 c-98 -20 -196 -97 -240 -189 -23 -47 -27 -70 -28 -141 0
-71 4 -94 26 -140 36 -77 78 -121 150 -160 47 -25 79 -34 130 -38 115 -8 197
27 267 116 l32 40 -56 48 -57 48 -36 -41 c-45 -51 -68 -63 -122 -63 -135 0
-226 139 -171 262 36 82 131 130 214 107 23 -6 61 -24 84 -40 l42 -28 41 62
41 62 -23 18 c-79 62 -205 95 -294 77z"/>
<path d="M4370 75 l0 -75 75 0 75 0 0 75 0 75 -75 0 -75 0 0 -75z"/>
</g>
</svg>
