<?xml version="1.0" standalone="no"?>
<!DOCTYPE svg PUBLIC "-//W3C//DTD SVG 20010904//EN"
 "http://www.w3.org/TR/2001/REC-SVG-20010904/DTD/svg10.dtd">
<svg version="1.0" xmlns="http://www.w3.org/2000/svg"
 width="512.000000pt" height="512.000000pt" viewBox="0 0 512.000000 512.000000"
 preserveAspectRatio="xMidYMid meet">

<g transform="translate(0.000000,512.000000) scale(0.100000,-0.100000)"
fill="#000000" stroke="none">
<path d="M3912 5103 c-11 -10 -235 -326 -498 -703 -263 -377 -501 -709 -529
-739 -53 -57 -144 -123 -200 -147 -31 -13 -35 -12 -47 4 -17 25 -51 42 -82 42
-15 0 -252 -113 -528 -251 -471 -236 -506 -255 -558 -308 -94 -97 -137 -214
-127 -346 4 -58 23 -117 98 -316 54 -139 103 -254 116 -266 12 -13 34 -23 48
-23 30 0 75 41 75 68 0 11 -41 125 -91 253 -100 259 -111 311 -86 400 17 58
75 145 87 132 5 -4 173 -438 375 -963 l367 -955 137 -138 c75 -77 229 -228
344 -338 l208 -199 99 0 c111 0 145 11 158 50 11 32 -7 84 -33 94 -9 3 -56 6
-103 6 l-87 0 -292 293 -293 292 -170 442 -170 441 40 86 c53 117 94 240 121
366 20 89 23 136 24 310 0 219 -8 278 -62 463 -15 48 -24 89 -22 91 2 2 73 38
157 80 l153 77 14 -35 c23 -55 19 -133 -11 -206 -22 -54 -25 -76 -22 -140 4
-95 33 -156 104 -227 99 -97 202 -114 369 -63 54 17 109 30 124 30 50 -1 106
-38 198 -131 l92 -94 -27 -105 -27 -105 -108 -5 c-121 -6 -137 -14 -137 -75 0
-52 28 -68 124 -73 l83 -4 -20 -79 -19 -79 -104 0 c-91 0 -107 -3 -124 -20
-25 -25 -26 -71 -1 -101 17 -21 29 -24 105 -28 75 -3 86 -5 82 -20 -3 -9 -10
-36 -16 -61 -6 -25 -13 -53 -16 -62 -5 -16 -19 -18 -109 -18 -100 0 -104 -1
-124 -26 -56 -71 -5 -124 119 -124 38 0 70 -3 70 -7 0 -5 -8 -39 -18 -78 l-18
-70 -107 -5 c-114 -5 -130 -12 -142 -61 -5 -20 0 -34 18 -55 24 -28 30 -29
128 -34 l102 -5 13 -65 c29 -141 110 -354 144 -375 26 -16 4 -25 -60 -25 -57
0 -74 -4 -90 -20 -30 -30 -27 -83 6 -109 25 -20 39 -21 282 -21 166 0 268 -4
294 -12 45 -13 122 -77 144 -119 l15 -29 -180 0 c-160 0 -181 -2 -202 -19 -32
-26 -32 -86 0 -112 21 -17 42 -19 207 -19 l184 0 0 -59 c0 -52 -3 -62 -26 -80
-26 -21 -36 -21 -488 -21 l-461 0 -376 378 -377 377 -182 475 c-100 261 -189
483 -197 493 -24 26 -88 23 -107 -5 -9 -12 -16 -33 -16 -47 0 -13 84 -243 187
-510 l186 -486 331 -335 331 -335 -1013 -5 -1014 -5 -19 -24 c-26 -32 -24 -67
6 -97 l24 -24 1603 2 c1780 3 1626 -3 1696 69 55 56 64 98 60 260 -3 131 -6
149 -30 202 -63 135 -185 218 -343 236 -110 13 -179 45 -236 109 -68 78 -115
191 -145 350 l-16 85 153 611 152 611 69 145 69 145 294 295 c320 321 322 324
270 375 -51 52 -54 50 -378 -272 l-299 -298 -59 -119 -60 -118 -88 86 c-143
139 -230 163 -402 107 -140 -45 -188 -42 -252 18 -64 58 -73 127 -32 235 19
51 25 86 25 149 l0 82 77 40 c158 82 187 119 737 904 534 762 525 747 470 790
-33 26 -65 27 -92 4z m-1803 -1995 c58 -176 77 -437 46 -633 -15 -98 -71 -299
-93 -333 -6 -8 -53 103 -137 320 -70 183 -145 377 -166 431 l-38 98 177 89
c97 49 180 89 184 89 3 1 16 -27 27 -61z"/>
<path d="M4694 4027 c-307 -302 -318 -315 -318 -352 0 -27 6 -43 23 -56 47
-38 61 -30 259 160 326 312 462 455 462 483 0 41 -36 78 -75 78 -31 0 -61 -27
-351 -313z"/>
<path d="M21 1674 c-26 -34 -27 -68 -1 -94 29 -29 51 -32 234 -28 162 3 168 4
187 27 26 32 24 73 -4 99 -22 21 -32 22 -209 22 l-187 0 -20 -26z"/>
<path d="M641 1674 c-24 -30 -26 -43 -10 -78 21 -44 44 -47 393 -44 l328 3 19
24 c25 30 24 76 -1 101 -19 19 -33 20 -364 20 l-345 0 -20 -26z"/>
<path d="M664 919 c-22 -11 -44 -48 -44 -73 0 -7 9 -25 21 -40 l20 -26 190 0
c176 0 190 1 209 20 25 25 26 71 1 101 -19 23 -23 24 -198 26 -110 1 -186 -2
-199 -8z"/>
<path d="M1269 901 c-34 -35 -36 -59 -8 -95 l20 -26 269 0 269 0 20 26 c24 30
26 43 10 77 -20 43 -45 47 -305 47 l-246 0 -29 -29z"/>
<path d="M25 125 c-14 -13 -25 -36 -25 -50 0 -14 11 -37 25 -50 24 -25 26 -25
205 -25 179 0 181 0 205 25 14 13 25 36 25 50 0 14 -11 37 -25 50 -24 25 -26
25 -205 25 -179 0 -181 0 -205 -25z"/>
</g>
</svg>
