<?xml version="1.0" standalone="no"?>
<!DOCTYPE svg PUBLIC "-//W3C//DTD SVG 20010904//EN"
 "http://www.w3.org/TR/2001/REC-SVG-20010904/DTD/svg10.dtd">
<svg version="1.0" xmlns="http://www.w3.org/2000/svg"
 width="512.000000pt" height="512.000000pt" viewBox="0 0 512.000000 512.000000"
 preserveAspectRatio="xMidYMid meet">

<g transform="translate(0.000000,512.000000) scale(0.100000,-0.100000)"
fill="#000000" stroke="none">
<path d="M3592 4828 c-7 -7 -12 -19 -12 -28 0 -31 23 -40 102 -40 43 0 78 -3
78 -6 0 -3 -42 -51 -92 -105 -113 -122 -120 -135 -89 -160 20 -17 41 -19 160
-19 150 0 176 8 169 51 -3 23 -6 24 -100 27 -54 1 -98 5 -98 8 0 4 45 56 100
116 55 60 100 114 100 120 0 5 -5 18 -10 29 -10 17 -23 19 -153 19 -98 0 -147
-4 -155 -12z"/>
<path d="M4140 4520 c-25 -25 -26 -52 -2 -73 14 -12 43 -17 125 -19 l107 -3
-135 -148 c-106 -115 -135 -153 -135 -175 0 -15 5 -33 12 -40 17 -17 419 -17
436 0 16 16 15 63 -1 76 -8 7 -67 13 -138 14 l-124 3 110 120 c181 197 185
205 145 245 -19 19 -33 20 -200 20 -167 0 -181 -1 -200 -20z"/>
<path d="M2270 4034 c-237 -14 -517 -53 -712 -100 -86 -21 -112 -31 -128 -51
-26 -33 -25 -54 1 -88 26 -33 37 -32 254 13 595 123 1337 109 1925 -38 200
-50 322 -63 530 -57 205 6 268 17 545 91 94 25 185 46 203 46 39 0 82 -40 82
-76 0 -12 -24 -114 -54 -226 -68 -253 -82 -322 -97 -473 -14 -143 -7 -282 22
-465 32 -195 31 -426 -1 -615 -20 -113 -24 -173 -24 -315 1 -214 14 -299 94
-598 33 -123 60 -233 60 -243 0 -33 -20 -60 -54 -74 -30 -13 -49 -9 -256 45
-262 70 -391 90 -575 90 -161 0 -306 -19 -489 -64 -75 -18 -136 -32 -136 -31
0 2 13 31 30 66 16 35 40 102 53 149 25 85 25 85 80 117 142 84 245 287 235
464 -5 92 -33 155 -95 214 l-43 42 0 270 c0 300 -8 366 -59 499 -86 222 -278
407 -504 485 -136 47 -190 51 -638 47 -445 -4 -448 -5 -591 -62 -167 -68 -323
-206 -416 -368 -17 -29 -46 -96 -64 -148 l-33 -95 -3 -310 -3 -310 -48 -46
c-26 -25 -58 -67 -71 -94 -32 -66 -38 -177 -15 -265 37 -145 147 -295 246
-335 45 -18 46 -20 64 -89 90 -351 382 -638 741 -728 130 -33 363 -32 484 0
181 49 322 127 451 249 69 65 79 71 139 82 36 7 139 30 230 51 229 54 314 64
515 57 187 -6 241 -16 520 -92 142 -39 181 -46 237 -43 81 4 137 38 181 109
49 80 47 115 -22 375 -85 318 -94 377 -95 579 -1 136 4 199 24 315 33 201 33
426 -1 630 -18 112 -24 182 -23 310 0 199 7 245 91 565 54 206 64 259 59 299
-12 109 -104 196 -214 204 -46 3 -98 -7 -267 -52 -297 -79 -378 -90 -605 -83
-191 6 -185 5 -515 81 -123 29 -327 61 -485 76 -109 11 -645 21 -760 14z m755
-1039 c195 -41 379 -184 469 -365 51 -105 76 -201 76 -300 l0 -65 -24 50 c-71
150 -227 234 -417 223 -60 -3 -74 -8 -90 -27 -25 -30 -24 -62 2 -95 19 -24 26
-26 98 -26 139 0 227 -44 270 -135 19 -41 21 -62 21 -230 0 -204 9 -251 52
-259 123 -24 142 -30 172 -57 47 -41 60 -77 54 -158 -10 -138 -121 -301 -206
-301 -41 0 -69 -40 -85 -120 -62 -318 -306 -582 -619 -670 -96 -27 -264 -37
-365 -20 -262 42 -491 200 -621 430 -42 74 -86 194 -96 260 -14 88 -40 120
-98 120 -83 0 -195 161 -206 295 -6 80 1 106 39 150 33 37 104 65 166 65 23 0
42 8 58 25 25 24 25 25 25 222 0 221 7 249 70 310 71 69 57 67 553 73 429 5
449 6 463 24 23 33 18 82 -12 105 -26 20 -37 21 -439 21 -237 0 -435 -4 -466
-10 -127 -24 -228 -103 -285 -223 l-35 -72 6 95 c12 190 72 334 188 457 107
113 219 177 362 208 91 20 825 20 920 0z"/>
<path d="M1953 1698 c-34 -16 -46 -62 -27 -106 69 -167 306 -192 404 -44 38
57 44 80 31 115 -21 54 -97 59 -128 9 -35 -56 -55 -72 -93 -72 -36 0 -80 31
-80 57 0 16 -49 53 -69 52 -9 0 -26 -5 -38 -11z"/>
<path d="M2796 1689 c-48 -38 -31 -116 40 -179 77 -67 171 -80 262 -34 89 44
144 145 108 199 -33 51 -101 42 -132 -17 -23 -44 -42 -57 -82 -58 -22 0 -39 8
-52 23 -85 97 -97 103 -144 66z"/>
<path d="M2281 1154 c-12 -15 -21 -35 -21 -45 0 -31 49 -77 118 -111 64 -32
72 -33 182 -33 110 0 118 1 182 33 69 34 118 80 118 111 0 10 -9 30 -21 45
-26 33 -72 34 -119 3 -50 -34 -95 -47 -160 -47 -65 0 -110 13 -160 47 -47 31
-93 30 -119 -3z"/>
<path d="M132 3974 c-79 -39 -130 -119 -132 -203 0 -19 29 -145 64 -280 83
-316 90 -362 90 -561 1 -128 -5 -197 -24 -310 -33 -203 -33 -427 1 -630 19
-116 24 -179 23 -315 -1 -202 -10 -261 -95 -579 -69 -260 -71 -295 -22 -375
44 -71 100 -105 181 -109 55 -3 95 4 232 41 278 76 349 89 525 94 95 3 197 1
250 -6 50 -7 111 -14 136 -18 39 -5 50 -2 68 16 27 27 28 82 1 106 -31 28
-139 45 -331 52 -226 8 -345 -9 -643 -88 -220 -58 -221 -58 -256 -41 -55 27
-59 54 -26 179 16 60 44 167 63 238 54 206 66 300 67 495 0 141 -4 201 -24
310 -32 185 -33 437 -1 625 29 174 36 316 22 460 -15 152 -29 222 -97 472 -30
111 -54 212 -54 226 0 37 43 77 82 77 18 0 110 -21 203 -46 277 -74 340 -85
547 -91 l186 -6 26 26 c33 33 33 71 1 102 -23 24 -29 25 -167 25 -178 0 -277
16 -539 85 -237 63 -282 67 -357 29z"/>
<path d="M3863 3470 c-44 -18 -56 -75 -22 -106 18 -17 42 -20 185 -24 l164 -5
-191 -225 c-105 -124 -195 -235 -200 -248 -12 -30 -2 -66 23 -89 18 -16 44
-18 246 -21 251 -4 305 1 333 29 25 25 24 64 -1 89 -19 19 -33 20 -200 20 -99
0 -180 2 -180 5 0 3 86 107 191 232 105 124 195 237 200 250 12 32 2 70 -24
88 -18 12 -65 15 -262 14 -132 0 -250 -4 -262 -9z"/>
</g>
</svg>
