<?xml version="1.0" standalone="no"?>
<!DOCTYPE svg PUBLIC "-//W3C//DTD SVG 20010904//EN"
 "http://www.w3.org/TR/2001/REC-SVG-20010904/DTD/svg10.dtd">
<svg version="1.0" xmlns="http://www.w3.org/2000/svg"
 width="512.000000pt" height="512.000000pt" viewBox="0 0 512.000000 512.000000"
 preserveAspectRatio="xMidYMid meet">

<g transform="translate(0.000000,512.000000) scale(0.100000,-0.100000)"
fill="#000000" stroke="none">
<path d="M2315 5109 c-597 -61 -1141 -318 -1563 -739 -1001 -999 -1002 -2618
-1 -3619 405 -405 902 -649 1494 -733 119 -17 512 -16 635 1 579 80 1085 329
1489 732 463 464 723 1061 748 1719 26 710 -243 1394 -748 1899 -396 396 -891
644 -1454 727 -122 18 -477 26 -600 13z m465 -150 c347 -32 717 -152 1010
-329 607 -365 1028 -976 1144 -1660 20 -116 39 -318 31 -330 -3 -5 -37 -10
-75 -10 l-68 0 -7 78 c-50 578 -268 1056 -665 1452 -182 183 -386 327 -623
440 -856 410 -1883 233 -2557 -440 -397 -395 -614 -870 -665 -1452 l-7 -78
-68 0 c-38 0 -72 5 -75 10 -8 12 11 214 31 330 116 685 537 1295 1144 1660
149 90 290 154 475 215 322 107 646 145 975 114z m130 -319 c234 -41 467 -122
658 -228 l84 -47 -99 -12 c-440 -55 -810 -368 -947 -802 -14 -43 -28 -102 -32
-130 -4 -28 -10 -51 -14 -51 -4 0 -11 23 -14 52 -4 28 -20 92 -36 142 -136
423 -509 735 -945 789 l-96 12 64 37 c223 128 529 226 808 257 135 16 425 6
569 -19z m1151 -601 c239 -240 431 -567 524 -888 38 -133 73 -332 77 -441 l3
-75 -982 -3 c-541 -1 -983 0 -983 3 0 3 16 27 35 54 l35 48 49 -10 c38 -7 74
-5 147 7 211 35 425 138 572 274 59 54 69 95 32 132 -34 34 -76 26 -136 -25
-83 -71 -216 -150 -308 -184 -88 -31 -243 -67 -253 -58 -3 3 133 202 301 443
322 460 332 478 289 517 -35 31 -68 31 -101 0 -17 -15 -163 -219 -326 -452
-163 -233 -298 -417 -300 -410 -11 36 -19 81 -26 162 -33 348 139 710 433 909
127 86 299 150 440 163 72 7 113 -12 146 -66 29 -48 45 -178 38 -325 -6 -143
-25 -224 -84 -363 -33 -78 -35 -86 -22 -110 22 -39 58 -55 92 -42 37 14 98
142 134 279 46 174 43 443 -6 588 l-18 53 51 -42 c28 -23 94 -85 147 -138z
m-2833 96 c-19 -60 -22 -97 -22 -265 -1 -184 1 -201 27 -294 32 -117 96 -257
164 -358 62 -93 208 -239 301 -301 193 -128 481 -218 609 -189 l43 10 35 -49
c19 -27 35 -51 35 -54 0 -3 -442 -4 -982 -3 l-983 3 3 75 c4 104 38 301 73
427 105 373 331 735 618 989 52 46 96 83 97 81 2 -1 -7 -34 -18 -72z m399 56
c270 -56 508 -230 653 -477 52 -89 94 -198 115 -299 26 -126 21 -349 -11 -444
-2 -7 -137 177 -300 410 -163 233 -309 437 -326 452 -33 31 -66 31 -100 0 -44
-39 -34 -57 287 -516 168 -239 305 -438 305 -441 0 -8 -69 2 -145 21 -356 88
-630 361 -731 731 -22 79 -30 295 -15 397 14 93 36 136 83 165 41 25 69 25
185 1z m943 -1149 c0 -46 29 -145 54 -182 l23 -36 -39 -54 c-22 -30 -43 -55
-48 -55 -5 0 -26 25 -48 55 l-39 54 23 36 c25 37 54 136 54 182 0 15 5 28 10
28 6 0 10 -13 10 -28z m2400 -579 c0 -10 -5 -63 -10 -118 -33 -335 -125 -641
-277 -923 l-56 -102 -2067 0 -2066 0 -47 83 c-154 276 -257 611 -287 942 -5
61 -10 116 -10 123 0 9 489 12 2410 12 2289 0 2410 -1 2410 -17z m-4108 -1391
c340 -392 820 -657 1343 -742 168 -28 208 -27 234 6 26 33 27 65 4 93 -15 18
-38 25 -133 37 -392 51 -736 192 -1040 427 -93 72 -214 182 -256 233 l-35 44
1581 0 1582 0 -41 -49 c-23 -27 -84 -86 -136 -132 -338 -296 -712 -465 -1155
-523 -95 -12 -118 -19 -132 -37 -24 -28 -23 -60 3 -93 26 -33 65 -34 239 -6
518 84 1000 352 1342 747 l81 93 88 0 c49 0 89 -3 89 -6 0 -19 -152 -198 -264
-309 -436 -435 -987 -676 -1606 -701 -666 -28 -1310 225 -1786 700 -112 113
-264 291 -264 310 0 3 40 6 88 6 l89 0 85 -98z"/>
<path d="M930 2310 c-11 -11 -20 -32 -20 -47 0 -16 61 -194 137 -397 130 -350
139 -369 169 -383 27 -13 35 -13 60 -2 26 13 41 46 167 379 76 201 139 380
139 399 3 57 -68 93 -115 58 -10 -6 -62 -131 -116 -275 -55 -145 -101 -266
-104 -268 -2 -2 -48 114 -101 258 -59 158 -106 270 -118 281 -27 23 -73 22
-98 -3z"/>
<path d="M1702 2307 c-22 -23 -22 -27 -22 -404 0 -360 1 -382 19 -404 19 -23
25 -24 184 -27 161 -3 165 -3 192 21 21 18 28 32 27 58 -1 58 -26 69 -158 69
l-114 0 0 105 0 105 109 0 c106 0 110 1 130 26 26 33 27 65 2 95 -18 22 -28
24 -130 27 l-111 4 0 99 0 99 109 0 c100 0 112 2 135 23 36 32 39 74 6 107
-18 18 -33 20 -188 20 -163 0 -169 -1 -190 -23z"/>
<path d="M2404 2314 c-60 -21 -119 -77 -151 -142 l-28 -57 0 -215 c0 -203 1
-218 23 -261 87 -178 311 -220 447 -84 61 61 79 114 80 228 0 128 -8 137 -130
137 -100 0 -111 -4 -131 -42 -13 -25 -13 -35 -3 -59 15 -36 36 -49 85 -49 36
0 36 -1 30 -32 -9 -46 -36 -80 -80 -102 -32 -16 -44 -17 -76 -7 -50 15 -87 60
-95 115 -4 24 -5 112 -3 197 2 131 6 158 22 182 59 87 183 71 226 -28 29 -68
99 -84 135 -32 21 30 19 61 -10 116 -61 122 -211 181 -341 135z"/>
<path d="M3123 2307 c-10 -13 -81 -189 -157 -390 -128 -339 -138 -369 -126
-396 16 -40 59 -57 97 -39 22 10 35 30 58 91 l30 77 150 0 150 0 30 -77 c23
-61 36 -81 58 -91 38 -18 81 -1 97 39 12 27 2 57 -126 396 -76 201 -147 377
-157 390 -25 32 -79 32 -104 0z m101 -390 l44 -117 -93 0 -93 0 46 120 c24 66
46 119 48 117 2 -1 23 -56 48 -120z"/>
<path d="M3621 2304 c-20 -26 -21 -37 -21 -403 0 -408 0 -411 55 -425 20 -5
73 11 87 27 1 1 5 113 8 249 l5 246 160 -244 c87 -135 167 -252 177 -261 24
-22 73 -21 98 2 19 18 20 30 20 407 0 375 -1 389 -20 408 -25 25 -71 26 -101
1 -24 -19 -24 -22 -29 -259 l-5 -240 -160 245 c-88 135 -169 251 -180 259 -31
22 -71 17 -94 -12z"/>
</g>
</svg>
