<?xml version="1.0" standalone="no"?>
<!DOCTYPE svg PUBLIC "-//W3C//DTD SVG 20010904//EN"
 "http://www.w3.org/TR/2001/REC-SVG-20010904/DTD/svg10.dtd">
<svg version="1.0" xmlns="http://www.w3.org/2000/svg"
 width="512.000000pt" height="512.000000pt" viewBox="0 0 512.000000 512.000000"
 preserveAspectRatio="xMidYMid meet">

<g transform="translate(0.000000,512.000000) scale(0.100000,-0.100000)"
fill="#000000" stroke="none">
<path d="M2468 4795 c-197 -50 -362 -224 -397 -419 -17 -92 -14 -488 4 -564
21 -89 69 -177 133 -244 30 -32 53 -59 51 -61 -2 -2 -125 -41 -274 -87 -148
-46 -299 -96 -333 -112 -140 -61 -251 -166 -316 -297 -18 -37 -104 -280 -191
-541 -162 -488 -183 -542 -232 -597 -15 -17 -188 -167 -383 -334 -195 -166
-363 -314 -372 -328 -22 -32 -23 -92 -3 -131 18 -34 108 -93 171 -110 35 -10
44 -16 38 -29 -38 -86 -46 -129 -42 -227 3 -92 7 -108 39 -172 l35 -71 -179
-3 c-174 -3 -179 -4 -198 -27 -25 -30 -24 -62 2 -95 l20 -26 2519 0 2519 0 20
26 c26 33 27 65 2 95 -18 23 -25 24 -179 27 l-160 3 29 57 c57 116 57 245 0
368 l-29 63 45 15 c65 22 141 74 158 107 20 38 19 98 -3 130 -9 14 -177 162
-372 328 -195 167 -368 317 -383 334 -49 55 -70 109 -232 597 -87 261 -171
502 -188 535 -66 133 -169 233 -302 295 -44 21 -193 72 -331 115 l-251 78 61
61 c65 65 114 148 140 235 22 77 23 539 1 624 -43 166 -171 305 -334 364 -84
31 -220 39 -303 18z m276 -168 c74 -34 155 -113 192 -184 l29 -58 0 -280 0
-280 -28 -58 c-37 -74 -110 -147 -184 -184 -52 -25 -68 -28 -158 -28 -93 0
-105 2 -167 33 -83 40 -158 119 -190 200 -21 53 -23 75 -26 289 -3 188 0 244
13 295 30 122 130 228 250 268 82 28 192 22 269 -13z m-48 -1241 c109 -16 689
-196 754 -234 64 -37 156 -127 189 -186 32 -56 163 -432 159 -454 -2 -11 -328
-162 -348 -162 -3 0 -32 68 -64 151 -36 90 -68 156 -80 165 -29 20 -59 17 -90
-7 l-26 -20 0 -570 0 -569 -630 0 -630 0 0 569 0 570 -26 20 c-64 51 -99 21
-160 -134 -26 -66 -50 -124 -54 -128 -11 -12 -350 160 -350 177 0 29 113 343
141 392 33 59 125 150 189 186 37 22 320 116 600 200 150 45 282 56 426 34z
m-1233 -1057 c89 -45 163 -82 165 -84 1 -1 -11 -36 -28 -78 -36 -89 -36 -96
-9 -131 27 -34 77 -36 106 -3 11 12 33 56 49 97 l29 75 3 -359 c1 -198 0 -361
-2 -364 -6 -5 -516 -161 -516 -157 0 2 25 17 56 35 66 37 136 99 174 155 28
42 90 193 90 220 0 26 -46 65 -78 65 -39 0 -64 -30 -98 -120 -46 -121 -77
-145 -465 -360 -183 -102 -354 -193 -379 -203 -57 -24 -167 -19 -223 9 l-37
20 363 310 c298 255 371 322 404 374 31 47 63 126 128 321 48 143 91 259 96
259 5 0 82 -37 172 -81z m2470 -201 c58 -175 87 -249 119 -297 34 -52 105
-118 405 -374 l364 -311 -38 -20 c-54 -27 -161 -33 -217 -12 -24 9 -196 102
-382 205 -251 140 -352 201 -389 237 -48 47 -55 62 -169 347 -65 164 -116 301
-112 305 7 6 324 149 336 151 3 1 40 -104 83 -231z m-457 -253 c70 -176 140
-339 156 -362 36 -53 111 -118 185 -161 32 -18 49 -31 38 -28 -25 7 -256 77
-402 122 l-113 35 0 361 c0 199 2 359 4 357 2 -2 62 -148 132 -324z m402 -716
c345 -105 648 -203 675 -217 82 -44 129 -126 130 -228 1 -79 -36 -159 -97
-209 l-43 -35 -795 0 -796 0 -6 33 c-3 19 -21 59 -40 89 l-33 56 30 6 c16 3
49 6 73 6 56 0 90 16 104 50 14 34 -8 85 -41 95 -11 4 -116 2 -232 -4 l-212
-12 -610 65 c-659 70 -649 70 -669 15 -12 -34 -1 -76 24 -89 11 -6 278 -38
593 -70 668 -70 686 -73 752 -108 45 -24 115 -100 115 -123 0 -6 -412 -8
-1082 -7 l-1083 3 -45 27 c-80 47 -120 124 -120 232 0 78 22 144 63 190 31 34
50 41 677 230 l645 194 698 1 698 1 627 -191z"/>
<path d="M3615 844 c-110 -7 -210 -13 -222 -13 -62 -3 -85 -95 -33 -132 24
-18 35 -18 270 -4 135 8 258 15 273 15 35 0 77 41 77 75 0 14 -11 37 -25 50
-28 29 -30 29 -340 9z"/>
</g>
</svg>
